<svg width="1440" height="4381" viewBox="0 0 1440 4381" fill="none" xmlns="http://www.w3.org/2000/svg">
<line x1="-386" y1="1.25" x2="2315" y2="1.25" stroke="#F1F1F1" stroke-width="1.5"/>
<line x1="-386" y1="3601.25" x2="2315" y2="3601.25" stroke="#F1F1F1" stroke-width="1.5"/>
<line x1="64.75" y1="1" x2="64.7498" y2="5552" stroke="#F1F1F1" stroke-width="1.5"/>
<line x1="-386" y1="1801.25" x2="2315" y2="1801.25" stroke="#F1F1F1" stroke-width="1.5"/>
<line x1="-386" y1="901.25" x2="2315" y2="901.25" stroke="#F1F1F1" stroke-width="1.5"/>
<line x1="-386" y1="2701.25" x2="2315" y2="2701.25" stroke="#F1F1F1" stroke-width="1.5"/>
<line x1="964.75" y1="1" x2="964.75" y2="5552" stroke="#F1F1F1" stroke-width="1.5"/>
<line x1="-386" y1="451.25" x2="2315" y2="451.25" stroke="#F1F1F1" stroke-width="1.5"/>
<line x1="-386" y1="4051.25" x2="2315" y2="4051.25" stroke="#F1F1F1" stroke-width="1.5"/>
<line x1="-386" y1="2251.25" x2="2315" y2="2251.25" stroke="#F1F1F1" stroke-width="1.5"/>
<line x1="1414.75" y1="1" x2="1414.75" y2="5552" stroke="#F1F1F1" stroke-width="1.5"/>
<line x1="-386" y1="1351.25" x2="2315" y2="1351.25" stroke="#F1F1F1" stroke-width="1.5"/>
<line x1="-386" y1="3151.25" x2="2315" y2="3151.25" stroke="#F1F1F1" stroke-width="1.5"/>
<line x1="514.75" y1="1" x2="514.75" y2="5552" stroke="#F1F1F1" stroke-width="1.5"/>
<line x1="-386" y1="151.25" x2="2315" y2="151.25" stroke="#F1F1F1" stroke-width="1.5"/>
<line x1="-386" y1="3751.25" x2="2315" y2="3751.25" stroke="#F1F1F1" stroke-width="1.5"/>
<line x1="-386" y1="1951.25" x2="2315" y2="1951.25" stroke="#F1F1F1" stroke-width="1.5"/>
<line x1="-386" y1="1051.25" x2="2315" y2="1051.25" stroke="#F1F1F1" stroke-width="1.5"/>
<line x1="-386" y1="2851.25" x2="2315" y2="2851.25" stroke="#F1F1F1" stroke-width="1.5"/>
<line x1="814.75" y1="1" x2="814.75" y2="5552" stroke="#F1F1F1" stroke-width="1.5"/>
<line x1="-386" y1="601.25" x2="2315" y2="601.25" stroke="#F1F1F1" stroke-width="1.5"/>
<line x1="-386" y1="4201.25" x2="2315" y2="4201.25" stroke="#F1F1F1" stroke-width="1.5"/>
<line x1="-386" y1="2401.25" x2="2315" y2="2401.25" stroke="#F1F1F1" stroke-width="1.5"/>
<line x1="1264.75" y1="1" x2="1264.75" y2="5552" stroke="#F1F1F1" stroke-width="1.5"/>
<line x1="-386" y1="1501.25" x2="2315" y2="1501.25" stroke="#F1F1F1" stroke-width="1.5"/>
<line x1="-386" y1="3301.25" x2="2315" y2="3301.25" stroke="#F1F1F1" stroke-width="1.5"/>
<line x1="364.75" y1="1" x2="364.75" y2="5552" stroke="#F1F1F1" stroke-width="1.5"/>
<line x1="-386" y1="301.25" x2="2315" y2="301.25" stroke="#F1F1F1" stroke-width="1.5"/>
<line x1="-386" y1="3901.25" x2="2315" y2="3901.25" stroke="#F1F1F1" stroke-width="1.5"/>
<line x1="-386" y1="2101.25" x2="2315" y2="2101.25" stroke="#F1F1F1" stroke-width="1.5"/>
<line x1="-386" y1="1201.25" x2="2315" y2="1201.25" stroke="#F1F1F1" stroke-width="1.5"/>
<line x1="-386" y1="3001.25" x2="2315" y2="3001.25" stroke="#F1F1F1" stroke-width="1.5"/>
<line x1="664.75" y1="1" x2="664.75" y2="5552" stroke="#F1F1F1" stroke-width="1.5"/>
<line x1="-386" y1="751.25" x2="2315" y2="751.25" stroke="#F1F1F1" stroke-width="1.5"/>
<line x1="-386" y1="4351.25" x2="2315" y2="4351.25" stroke="#F1F1F1" stroke-width="1.5"/>
<line x1="-386" y1="2551.25" x2="2315" y2="2551.25" stroke="#F1F1F1" stroke-width="1.5"/>
<line x1="1114.75" y1="1" x2="1114.75" y2="5552" stroke="#F1F1F1" stroke-width="1.5"/>
<line x1="-386" y1="1651.25" x2="2315" y2="1651.25" stroke="#F1F1F1" stroke-width="1.5"/>
<line x1="-386" y1="3451.25" x2="2315" y2="3451.25" stroke="#F1F1F1" stroke-width="1.5"/>
<line x1="214.75" y1="1" x2="214.75" y2="5552" stroke="#F1F1F1" stroke-width="1.5"/>
<line x1="-386" y1="76.25" x2="2315" y2="76.25" stroke="#F1F1F1" stroke-width="1.5"/>
<line x1="-386" y1="3676.25" x2="2315" y2="3676.25" stroke="#F1F1F1" stroke-width="1.5"/>
<line x1="-386" y1="1876.25" x2="2315" y2="1876.25" stroke="#F1F1F1" stroke-width="1.5"/>
<line x1="-386" y1="976.25" x2="2315" y2="976.25" stroke="#F1F1F1" stroke-width="1.5"/>
<line x1="-386" y1="2776.25" x2="2315" y2="2776.25" stroke="#F1F1F1" stroke-width="1.5"/>
<line x1="889.75" y1="1" x2="889.75" y2="5552" stroke="#F1F1F1" stroke-width="1.5"/>
<line x1="-386" y1="526.25" x2="2315" y2="526.25" stroke="#F1F1F1" stroke-width="1.5"/>
<line x1="-386" y1="4126.25" x2="2315" y2="4126.25" stroke="#F1F1F1" stroke-width="1.5"/>
<line x1="-386" y1="2326.25" x2="2315" y2="2326.25" stroke="#F1F1F1" stroke-width="1.5"/>
<line x1="1339.75" y1="1" x2="1339.75" y2="5552" stroke="#F1F1F1" stroke-width="1.5"/>
<line x1="-386" y1="1426.25" x2="2315" y2="1426.25" stroke="#F1F1F1" stroke-width="1.5"/>
<line x1="-386" y1="3226.25" x2="2315" y2="3226.25" stroke="#F1F1F1" stroke-width="1.5"/>
<line x1="439.75" y1="1" x2="439.75" y2="5552" stroke="#F1F1F1" stroke-width="1.5"/>
<line x1="-386" y1="226.25" x2="2315" y2="226.25" stroke="#F1F1F1" stroke-width="1.5"/>
<line x1="-386" y1="3826.25" x2="2315" y2="3826.25" stroke="#F1F1F1" stroke-width="1.5"/>
<line x1="-386" y1="2026.25" x2="2315" y2="2026.25" stroke="#F1F1F1" stroke-width="1.5"/>
<line x1="-386" y1="1126.25" x2="2315" y2="1126.25" stroke="#F1F1F1" stroke-width="1.5"/>
<line x1="-386" y1="2926.25" x2="2315" y2="2926.25" stroke="#F1F1F1" stroke-width="1.5"/>
<line x1="739.75" y1="1" x2="739.75" y2="5552" stroke="#F1F1F1" stroke-width="1.5"/>
<line x1="-386" y1="676.25" x2="2315" y2="676.25" stroke="#F1F1F1" stroke-width="1.5"/>
<line x1="-386" y1="4276.25" x2="2315" y2="4276.25" stroke="#F1F1F1" stroke-width="1.5"/>
<line x1="-386" y1="2476.25" x2="2315" y2="2476.25" stroke="#F1F1F1" stroke-width="1.5"/>
<line x1="1189.75" y1="1" x2="1189.75" y2="5552" stroke="#F1F1F1" stroke-width="1.5"/>
<line x1="-386" y1="1576.25" x2="2315" y2="1576.25" stroke="#F1F1F1" stroke-width="1.5"/>
<line x1="-386" y1="3376.25" x2="2315" y2="3376.25" stroke="#F1F1F1" stroke-width="1.5"/>
<line x1="289.75" y1="1" x2="289.75" y2="5552" stroke="#F1F1F1" stroke-width="1.5"/>
<line x1="-386" y1="376.25" x2="2315" y2="376.25" stroke="#F1F1F1" stroke-width="1.5"/>
<line x1="-386" y1="3976.25" x2="2315" y2="3976.25" stroke="#F1F1F1" stroke-width="1.5"/>
<line x1="-386" y1="2176.25" x2="2315" y2="2176.25" stroke="#F1F1F1" stroke-width="1.5"/>
<line x1="-386" y1="1276.25" x2="2315" y2="1276.25" stroke="#F1F1F1" stroke-width="1.5"/>
<line x1="-386" y1="3076.25" x2="2315" y2="3076.25" stroke="#F1F1F1" stroke-width="1.5"/>
<line x1="589.75" y1="1" x2="589.75" y2="5552" stroke="#F1F1F1" stroke-width="1.5"/>
<line x1="-386" y1="826.25" x2="2315" y2="826.25" stroke="#F1F1F1" stroke-width="1.5"/>
<line x1="-386" y1="2626.25" x2="2315" y2="2626.25" stroke="#F1F1F1" stroke-width="1.5"/>
<line x1="1039.75" y1="1" x2="1039.75" y2="5552" stroke="#F1F1F1" stroke-width="1.5"/>
<line x1="-386" y1="1726.25" x2="2315" y2="1726.25" stroke="#F1F1F1" stroke-width="1.5"/>
<line x1="-386" y1="3526.25" x2="2315" y2="3526.25" stroke="#F1F1F1" stroke-width="1.5"/>
<line x1="139.75" y1="1" x2="139.75" y2="5552" stroke="#F1F1F1" stroke-width="1.5"/>
</svg>
