<svg width="112" height="69" viewBox="0 0 112 69" fill="none" xmlns="http://www.w3.org/2000/svg">
<path d="M67.3369 45.4175V41.3489H67.9355V42.8717L67.9181 42.8891V44.906H69.8885C70.1054 44.906 70.2895 44.8711 70.4406 44.8014C70.5917 44.7316 70.7061 44.6347 70.7835 44.5108C70.861 44.3868 70.8998 44.2415 70.8998 44.0748C70.8998 43.9082 70.861 43.7629 70.7835 43.6389C70.7061 43.511 70.5917 43.4122 70.4406 43.3425C70.2895 43.2727 70.1054 43.2379 69.8885 43.2379H67.7379V42.7264H69.8885C70.2372 42.7264 70.5317 42.7826 70.7719 42.8949C71.0122 43.0073 71.1923 43.1642 71.3125 43.3657C71.4365 43.5672 71.4985 43.8036 71.4985 44.0748C71.4985 44.3422 71.4365 44.5766 71.3125 44.7781C71.1923 44.9796 71.0122 45.1365 70.7719 45.2489C70.5317 45.3613 70.2372 45.4175 69.8885 45.4175H67.3369Z" fill="#202020"/>
<path d="M62.8389 45.4871C62.2887 45.4871 61.8179 45.3961 61.4265 45.214C61.0352 45.0319 60.7368 44.7819 60.5315 44.4642C60.33 44.1426 60.2292 43.7822 60.2292 43.3831C60.2292 42.984 60.33 42.6256 60.5315 42.3079C60.7368 41.9862 61.0352 41.7344 61.4265 41.5523C61.8179 41.3701 62.2887 41.2791 62.8389 41.2791C63.3543 41.2791 63.796 41.3527 64.1641 41.4999C64.5322 41.6433 64.8209 41.8409 65.0301 42.0928C65.2432 42.3447 65.3827 42.6295 65.4486 42.9472H64.85C64.7957 42.7341 64.6891 42.5403 64.5303 42.366C64.3714 42.1916 64.1505 42.0521 63.8677 41.9475C63.5848 41.8429 63.2419 41.7906 62.8389 41.7906C62.4166 41.7906 62.0523 41.8603 61.7462 41.9998C61.444 42.1393 61.2154 42.3292 61.0604 42.5694C60.9054 42.8096 60.8279 43.0809 60.8279 43.3831C60.8279 43.6854 60.9054 43.9566 61.0604 44.1968C61.2154 44.4371 61.444 44.6269 61.7462 44.7664C62.0523 44.9059 62.4166 44.9757 62.8389 44.9757C63.2419 44.9757 63.5848 44.9234 63.8677 44.8187C64.1505 44.7141 64.3714 44.5746 64.5303 44.4003C64.6891 44.2259 64.7957 44.0321 64.85 43.819H65.4486C65.3866 44.1484 65.251 44.4371 65.0418 44.6851C64.8364 44.933 64.5477 45.1287 64.1757 45.2721C63.8076 45.4155 63.362 45.4871 62.8389 45.4871Z" fill="#202020"/>
<path d="M54.6469 45.4175V41.3489H58.5411V41.8604H55.2455V44.906H58.5411V45.4175H54.6469ZM55.1642 43.5924V43.11H58.1342V43.5924H55.1642Z" fill="#202020"/>
<path d="M47.4493 46.4346V44.906H47.6934C47.8523 44.906 47.9802 44.8517 48.077 44.7432C48.1778 44.6347 48.2417 44.4565 48.2688 44.2085L48.5943 41.3489H52.2328V44.906H52.8721V46.4346H52.2909V45.4175H48.0305V46.4346H47.4493ZM48.2688 44.9757V44.906H51.6516V41.8604H49.1232L48.8675 44.1562C48.8365 44.4429 48.7706 44.6522 48.6699 44.7839C48.573 44.9118 48.4393 44.9757 48.2688 44.9757Z" fill="#202020"/>
<path d="M43.887 45.4871C43.3678 45.4871 42.9416 45.429 42.6083 45.3127C42.279 45.1965 42.0387 45.0396 41.8876 44.8419C41.7365 44.6405 41.6609 44.4118 41.6609 44.1561V44.0515H42.2596V44.1561C42.2596 44.2995 42.3138 44.4331 42.4223 44.5571C42.5308 44.6811 42.7071 44.7819 42.9513 44.8594C43.1954 44.9369 43.5073 44.9756 43.887 44.9756C44.4799 44.9756 44.8984 44.9117 45.1425 44.7838C45.3866 44.6521 45.5086 44.4796 45.5086 44.2665C45.5086 44.0689 45.404 43.9081 45.1948 43.7841C44.9894 43.6601 44.6484 43.5981 44.1718 43.5981H43.0617V43.1157H44.1718C44.6213 43.1157 44.9468 43.0556 45.1483 42.9355C45.3498 42.8115 45.4505 42.6565 45.4505 42.4705C45.4505 42.3466 45.4021 42.2342 45.3052 42.1334C45.2083 42.0327 45.0437 41.9513 44.8112 41.8893C44.5787 41.8235 44.2706 41.7905 43.887 41.7905C43.5228 41.7905 43.2225 41.8293 42.9861 41.9068C42.7536 41.9843 42.5831 42.085 42.4746 42.209C42.37 42.333 42.3177 42.4667 42.3177 42.61V42.6856H41.7191V42.5926C41.7191 42.3446 41.7927 42.1218 41.9399 41.9242C42.091 41.7266 42.3274 41.5696 42.649 41.4534C42.9745 41.3372 43.3872 41.279 43.887 41.279C44.4024 41.279 44.8209 41.3294 45.1425 41.4302C45.4641 41.5309 45.6946 41.6646 45.8341 41.8312C45.9775 41.9939 46.0492 42.1761 46.0492 42.3776C46.0492 42.5519 46.0046 42.7088 45.9155 42.8483C45.8303 42.984 45.7043 43.0925 45.5377 43.1738C45.3711 43.2513 45.1715 43.2901 44.939 43.2901H44.846L45.1308 43.1215V43.5342L44.846 43.3656H44.9565C45.1967 43.3656 45.4021 43.4083 45.5726 43.4935C45.7469 43.5749 45.8787 43.6872 45.9678 43.8306C46.0608 43.974 46.1073 44.1367 46.1073 44.3188C46.1073 44.5475 46.0376 44.7489 45.8981 44.9233C45.7586 45.0977 45.5241 45.2352 45.1948 45.336C44.8654 45.4367 44.4295 45.4871 43.887 45.4871Z" fill="#202020"/>
<path fill-rule="evenodd" clip-rule="evenodd" d="M25.8871 37.1142L25.8862 37.113C25.2923 36.2917 25 35.3448 25 34.2815C25 33.2187 25.2921 32.2758 25.8867 31.4626C26.4787 30.6442 27.3062 30.0087 28.3606 29.5567C29.4173 29.1037 30.6334 28.8816 32 28.8816C33.3667 28.8816 34.5827 29.1037 35.6394 29.5567C36.6938 30.0087 37.5214 30.6443 38.1134 31.4627C38.7079 32.2758 39 33.2187 39 34.2815C39 35.3448 38.7077 36.2917 38.1138 37.113L38.1129 37.1142C37.5207 37.9239 36.6931 38.5547 35.6394 39.0064C34.5827 39.4594 33.3667 39.6815 32 39.6815C30.6334 39.6815 29.4173 39.4594 28.3606 39.0064C27.3069 38.5547 26.4794 37.9239 25.8871 37.1142ZM35.7439 36.038L35.7449 36.0365C36.0925 35.5502 36.2725 34.9688 36.2725 34.2815C36.2725 33.5943 36.0925 33.0129 35.7449 32.5266L35.7439 32.5251L35.7429 32.5237C35.4033 32.0354 34.9229 31.6584 34.2931 31.3912C33.6641 31.1243 32.9032 30.9853 32 30.9853C31.1084 30.9853 30.3468 31.1239 29.7061 31.3915C29.0766 31.6588 28.5907 32.036 28.2407 32.5251C27.9028 33.0116 27.7276 33.5937 27.7276 34.2815C27.7276 34.9694 27.9027 35.5514 28.2406 36.0379C28.5906 36.527 29.0764 36.9042 29.7059 37.1715C30.3467 37.4392 31.1083 37.5778 32 37.5778C32.9032 37.5778 33.6641 37.4388 34.2931 37.1719C34.9229 36.9047 35.4033 36.5277 35.7429 36.0394L35.7439 36.038ZM29.5623 37.4175C28.8791 37.1276 28.346 36.7147 27.9631 36.1789C27.5904 35.6431 27.4041 35.0106 27.4041 34.2815C27.4041 33.5525 27.5904 32.92 27.9631 32.3842C28.346 31.8484 28.8791 31.4355 29.5623 31.1456C30.2558 30.8558 31.0684 30.7108 32 30.7108C32.942 30.7108 33.7545 30.8558 34.4377 31.1456C35.1209 31.4355 35.6488 31.8484 36.0214 32.3842C36.4044 32.92 36.5959 33.5525 36.5959 34.2815C36.5959 35.0106 36.4044 35.6431 36.0214 36.1789C35.6488 36.7147 35.1209 37.1276 34.4377 37.4175C33.7545 37.7073 32.942 37.8523 32 37.8523C31.0684 37.8523 30.2558 37.7073 29.5623 37.4175ZM28.5065 38.7614C29.5106 39.1918 30.6751 39.407 32 39.407C33.325 39.407 34.4895 39.1918 35.4935 38.7614C36.4976 38.331 37.2791 37.7337 37.8381 36.9695C38.397 36.1965 38.6765 35.3005 38.6765 34.2815C38.6765 33.2626 38.397 32.371 37.8381 31.6068C37.2791 30.8338 36.4976 30.2321 35.4935 29.8017C34.4895 29.3713 33.325 29.1561 32 29.1561C30.6751 29.1561 29.5106 29.3713 28.5065 29.8017C27.5024 30.2321 26.7209 30.8338 26.162 31.6068C25.603 32.371 25.3235 33.2626 25.3235 34.2815C25.3235 35.3005 25.603 36.1965 26.162 36.9695C26.7209 37.7337 27.5024 38.331 28.5065 38.7614Z" fill="#202020"/>
<path d="M4.83467 30.0274H6.76552V39.6313H4.83467V30.0274ZM0.30011 29.1646H5.8001L11.3001 29.0816V30.7901H0.30011V29.1646Z" fill="#202020"/>
<path d="M31.8475 39.4815C30.5284 39.4815 29.369 39.2674 28.3693 38.8391C27.3696 38.4108 26.5916 37.8165 26.035 37.0561C25.4785 36.2869 25.2003 35.3954 25.2003 34.3815C25.2003 33.3677 25.4785 32.4805 26.035 31.7201C26.5916 30.951 27.2604 30.2098 28.2601 29.7816C29.2598 29.3533 30.5284 29.0816 31.8475 29.0816C33.1666 29.0816 34.6006 29.3533 35.6002 29.7816C36.5999 30.2098 37.4107 30.9124 37.9672 31.6816C38.5237 32.442 38.8002 33.3677 38.8002 34.3815C38.8002 35.3954 38.3568 36.2869 37.8002 37.0561C37.2437 37.8165 36.2235 38.5533 35.2239 38.9815C34.2242 39.4098 33.1666 39.4815 31.8475 39.4815ZM31.8475 37.7815C32.7853 37.7815 33.4886 37.67 34.1688 37.3815C34.8489 37.0931 35.4803 36.8026 35.8513 36.2695C36.2326 35.7363 36.4233 35.107 36.4233 34.3815C36.4233 33.6561 36.2326 33.0268 35.8513 32.4936C35.4803 31.9605 34.9547 31.5497 34.2745 31.2612C33.5943 30.9728 32.7853 30.8286 31.8475 30.8286C30.92 30.8286 30.111 30.9728 29.4205 31.2612C28.7403 31.5497 28.3249 32.0484 27.9436 32.5816C27.5726 33.1147 27.416 33.6561 27.416 34.3815C27.416 35.107 27.6781 35.6484 28.0491 36.1815C28.4304 36.7147 28.8461 37.0931 29.5262 37.3815C30.2167 37.67 30.92 37.7815 31.8475 37.7815Z" fill="#202020"/>
<path d="M40.6912 39.4816V29.2137H42.6568V35.8732C42.6568 36.3719 42.6275 36.7973 42.5688 37.1493C42.5199 37.4916 42.4466 37.8632 42.3488 38.2641H42.5541L49.2283 29.2137H52.4114V39.4816H50.4458V32.8221C50.4458 32.3234 50.4702 31.9029 50.5191 31.5606C50.568 31.2086 50.6462 30.8321 50.7538 30.4312H50.5338L43.8743 39.4816H40.6912Z" fill="#202020"/>
<path fill-rule="evenodd" clip-rule="evenodd" d="M40.3854 39.7872V28.9081H42.9622V35.8732C42.9622 36.3811 42.9325 36.8231 42.8706 37.196C42.8632 37.2474 42.8553 37.2993 42.8469 37.3519L49.0737 28.9081H52.7167V39.7872H50.1399V32.8221C50.1399 32.315 50.1647 31.8793 50.2163 31.5181C50.2243 31.46 50.2332 31.4012 50.2428 31.342L44.0286 39.7872H40.3854ZM50.5335 30.4312H50.7536C50.7413 30.4767 50.7295 30.522 50.718 30.5669C50.7035 30.624 50.6895 30.6806 50.6761 30.7368C50.6742 30.7447 50.6723 30.7527 50.6705 30.7607C50.6047 31.0401 50.5541 31.3067 50.5189 31.5606C50.47 31.9029 50.4455 32.3234 50.4455 32.8221V39.4816H52.4111V29.2137H49.228L42.5539 38.2641H42.3485C42.3591 38.2209 42.3693 38.178 42.3793 38.1354C42.3933 38.0758 42.4067 38.0168 42.4196 37.9585C42.4224 37.9456 42.4253 37.9327 42.4281 37.9199C42.4871 37.6483 42.534 37.3915 42.5686 37.1493C42.6272 36.7973 42.6566 36.3719 42.6566 35.8732V29.2137H40.691V39.4816H43.874L50.5335 30.4312Z" fill="#202020"/>
<path d="M12.691 39.4816V29.2137H20.4066C21.5312 29.2137 22.3771 29.4435 22.9443 29.9031C23.5114 30.3529 23.795 30.969 23.795 31.7513C23.795 32.2012 23.6972 32.5923 23.5017 32.9248C23.3159 33.2573 23.0469 33.5213 22.6949 33.7169C22.3428 33.9125 21.9321 34.02 21.4627 34.0396L21.7121 33.4382V34.8464L21.4481 34.2596C22.2988 34.2792 22.9638 34.509 23.443 34.9491C23.9222 35.3891 24.1617 35.9807 24.1617 36.7239C24.1617 37.3009 24.0297 37.7947 23.7657 38.2055C23.5017 38.6162 23.0909 38.934 22.5335 39.1589C21.9761 39.374 21.2623 39.4816 20.3919 39.4816H12.691ZM20.2893 37.8387C20.9053 37.8387 21.3649 37.7165 21.6681 37.472C21.9712 37.2276 22.1228 36.8853 22.1228 36.4452C22.1228 35.9954 21.9712 35.6482 21.6681 35.4038C21.3649 35.1495 20.9053 35.0224 20.2893 35.0224H14.2018V33.5262H20.0986C20.6364 33.5262 21.0471 33.4089 21.3307 33.1742C21.6143 32.9297 21.7561 32.6021 21.7561 32.1914C21.7561 31.7807 21.6143 31.4579 21.3307 31.2233C21.0471 30.9788 20.6364 30.8565 20.0986 30.8565H14.6859V37.8387H20.2893Z" fill="#202020"/>
<path fill-rule="evenodd" clip-rule="evenodd" d="M12.3851 39.7872V28.9081H20.4064C21.5643 28.9081 22.491 29.1434 23.1352 29.6647C23.7811 30.1775 24.1004 30.8849 24.1004 31.7513C24.1004 32.2452 23.9929 32.6908 23.7665 33.0768C23.5515 33.4604 23.2408 33.7631 22.8431 33.984C22.7527 34.0342 22.6594 34.079 22.5633 34.1186C22.981 34.2448 23.3453 34.4446 23.6495 34.724C24.2009 35.2304 24.4671 35.9086 24.4671 36.7239C24.4671 37.3487 24.3236 37.9023 24.0225 38.3707C23.7171 38.8459 23.25 39.1993 22.6477 39.4423L22.6455 39.4432L22.6433 39.444C22.0387 39.6774 21.284 39.7872 20.3917 39.7872H12.3851ZM22.0175 33.9696C22.2632 33.9154 22.489 33.8312 22.6947 33.7169C23.0467 33.5213 23.3156 33.2573 23.5014 32.9248C23.697 32.5923 23.7948 32.2012 23.7948 31.7513C23.7948 30.969 23.5112 30.3529 22.944 29.9031C22.3768 29.4435 21.531 29.2137 20.4064 29.2137H12.6907V39.4816H20.3917C21.262 39.4816 21.9759 39.3741 22.5333 39.1589C23.0907 38.934 23.5014 38.6162 23.7655 38.2055C24.0295 37.7947 24.1615 37.3009 24.1615 36.7239C24.1615 35.9807 23.9219 35.3891 23.4427 34.9491C23.0763 34.6125 22.6012 34.399 22.0175 34.3084C21.9908 34.3042 21.9639 34.3003 21.9368 34.2967C21.8893 34.2904 21.841 34.2848 21.7921 34.28C21.7656 34.2774 21.7388 34.2751 21.7119 34.2729V34.0203C21.7437 34.0167 21.7752 34.0126 21.8064 34.008C21.8478 34.002 21.8886 33.9952 21.9289 33.9877C21.9587 33.9821 21.9882 33.976 22.0175 33.9696ZM20.0983 33.5262C20.6362 33.5262 21.0469 33.4089 21.3305 33.1742C21.6141 32.9297 21.7559 32.6021 21.7559 32.1914C21.7559 31.7807 21.6141 31.458 21.3305 31.2233C21.0469 30.9788 20.6362 30.8565 20.0983 30.8565H14.6857V33.5262H20.0983ZM14.6857 37.8387H20.289C20.9051 37.8387 21.3647 37.7165 21.6679 37.472C21.971 37.2276 22.1226 36.8853 22.1226 36.4452C22.1226 35.9954 21.971 35.6483 21.6679 35.4038C21.3647 35.1495 20.9051 35.0224 20.289 35.0224H14.6857V37.8387ZM14.9912 35.328V37.5332H20.289C20.8734 37.5332 21.2509 37.4157 21.476 37.2342C21.6973 37.0557 21.817 36.8065 21.817 36.4452C21.817 36.0717 21.6956 35.8187 21.476 35.6417L21.4737 35.6398L21.4715 35.6379C21.2468 35.4494 20.8713 35.328 20.289 35.328H14.9912ZM14.9912 33.2206H20.0983C20.5951 33.2206 20.9247 33.1121 21.1333 32.9407C21.341 32.7605 21.4503 32.5217 21.4503 32.1914C21.4503 31.8598 21.3404 31.6281 21.1356 31.4587L21.1333 31.4567L21.131 31.4547C20.9227 31.2752 20.5944 31.1621 20.0983 31.1621H14.9912V33.2206Z" fill="#202020"/>
<path fill-rule="evenodd" clip-rule="evenodd" d="M6.76462 30.7829V39.5921H4.83535V30.7829H0.304493V29.1711H11.2955V30.7829H6.76462ZM4.53086 31.0723H0V28.8816H11.6V31.0723H7.06911V39.8816H4.53086V31.0723Z" fill="#202020"/>
<path d="M61.9665 36.1151C60.3455 36.1151 59.0202 35.6544 58.1627 34.9264C57.3052 34.1983 57.0004 33.0812 57.0004 31.6997V29.0815H59.2193V31.5581C59.2193 32.4636 59.3534 33.1559 59.9181 33.6319C60.4828 34.0986 61.3141 34.332 62.4122 34.332C63.0396 34.332 63.6985 34.2666 64.3886 34.136C65.0788 33.9959 65.7638 33.8046 66.4435 33.5619L66.6155 35.2236C65.9253 35.5129 65.1834 35.6593 64.3886 35.8179C63.6043 35.9673 62.7508 36.1151 61.9665 36.1151ZM65.9815 39.6815V29.0815H68.2004V39.6815H65.9815Z" fill="#202020"/>
<path fill-rule="evenodd" clip-rule="evenodd" d="M56.8 28.8816H59.4659V31.6304C59.4659 32.4742 59.7235 33.0731 60.1935 33.4754C60.6659 33.8707 61.3884 34.0921 62.4158 34.0921C63.0043 34.0921 63.6259 34.03 64.2813 33.9043C64.7679 33.8041 65.2521 33.6767 65.7341 33.5221V28.8816H68.4V39.8815H65.7341V35.7024C65.3028 35.8423 64.8544 35.9593 64.3891 36.0535L64.3875 36.0538L64.386 36.0541C63.597 36.2065 62.8071 36.2828 62.0167 36.2828C60.3792 36.2828 59.0758 35.9094 58.1581 35.1193C57.2376 34.3267 56.8 33.194 56.8 31.7693V28.8816ZM65.7341 35.3943C65.8418 35.358 65.9484 35.3204 66.0539 35.2812V39.5921H68.0802V29.171H66.0539V33.7248C66.0526 33.7252 66.0513 33.7256 66.0501 33.726C65.9448 33.7615 65.8395 33.7958 65.7341 33.8287C65.2751 33.9722 64.8137 34.0916 64.3499 34.187C63.6745 34.3167 63.0298 34.3815 62.4158 34.3815C61.3412 34.3815 60.5276 34.15 59.975 33.6868C59.4224 33.2144 59.1461 32.5289 59.1461 31.6304V29.171H57.1198V31.7693C57.1198 33.1403 57.5394 34.187 58.3785 34.9095C59.2177 35.6321 60.4304 35.9933 62.0167 35.9933C62.7842 35.9933 63.5517 35.9192 64.3192 35.771C64.8113 35.6714 65.2829 35.5458 65.7341 35.3943Z" fill="#202020"/>
<path d="M69.4788 39.4816L74.5835 29.2136H76.9744L82.0791 39.4816H79.9228L76.4024 32.206C76.2166 31.8051 76.0845 31.4677 76.0063 31.1939C75.9281 30.9201 75.889 30.6756 75.889 30.4604V30.4311H75.6689V30.4604C75.6689 30.6756 75.6298 30.9201 75.5516 31.1939C75.4733 31.4677 75.3413 31.8051 75.1555 32.206L71.6351 39.4816H69.4788ZM71.6644 37.5893L72.4419 35.9905H79.1307L79.8494 37.5893H71.6644Z" fill="#202020"/>
<path fill-rule="evenodd" clip-rule="evenodd" d="M68.9861 39.7872L74.3945 28.908H77.1642L82.5727 39.7872H79.7316L78.816 37.8949H72.7427L71.8271 39.7872H68.9861ZM72.5511 37.5893H79.0076L79.9232 39.4816H82.0795L76.9749 29.2136H74.5839L69.4793 39.4816H71.6355L72.5511 37.5893ZM76.4028 32.206C76.217 31.8051 76.085 31.4677 76.0067 31.1939C75.9771 31.0903 75.9531 30.9908 75.9347 30.8956C75.9045 30.7392 75.8894 30.5942 75.8894 30.4605V30.4311H75.6694V30.4605C75.6694 30.5942 75.6542 30.7392 75.624 30.8956C75.6056 30.9908 75.5816 31.0903 75.552 31.1939C75.4738 31.4677 75.3418 31.8051 75.156 32.206L73.3248 35.9905H78.234L76.4028 32.206ZM77.7466 35.6849L76.1266 32.3368L76.1255 32.3345C75.9796 32.0196 75.8635 31.7375 75.7794 31.4896C75.6952 31.7375 75.5791 32.0196 75.4332 32.3345L75.4322 32.3368L73.8121 35.6849H77.7466Z" fill="#202020"/>
<path d="M95.7002 35.5815C95.5942 36.4329 95.1496 37.3699 94.5665 38.027C93.9939 38.6748 93.2412 39.1792 92.3082 39.5401C91.3751 39.901 90.3096 40.0815 89.1115 40.0815C87.7756 40.0815 86.6041 39.8548 85.5968 39.4013C84.5896 38.9478 83.805 38.3185 83.2431 37.5134C82.6812 36.699 82.2002 35.855 82.2002 34.7815C82.2002 33.708 82.4383 32.5866 83.0002 31.7815C83.5622 30.9671 84.393 30.235 85.4002 29.7815C86.4074 29.328 87.7597 29.0815 89.0956 29.0815C90.2937 29.0815 91.4672 29.2206 92.4002 29.5815C93.3332 29.9424 94.1277 30.6049 94.7002 31.2527C95.2833 31.9005 95.6942 32.7381 95.8002 33.5987H93.485C93.3684 33.0435 93.1139 32.5669 92.7216 32.1689C92.34 31.771 91.8417 31.4656 91.2267 31.2527C90.6118 31.0306 89.9014 30.9196 89.0956 30.9196C88.1626 30.9196 87.3515 31.0723 86.6624 31.3777C85.9838 31.683 85.459 32.118 85.0879 32.6825C84.7168 33.2471 84.5313 33.9134 84.5313 34.6815C84.5313 35.4496 84.8291 36.117 85.2002 36.6815C85.5713 37.246 86.1217 37.5761 86.8002 37.8815C87.4894 38.1869 88.1785 38.2815 89.1115 38.2815C89.9173 38.2815 90.6118 38.0943 91.2267 37.8815C91.8417 37.6686 92.3185 37.3794 92.7002 36.9815C93.0925 36.5743 93.3684 36.0368 93.485 35.4815L95.7002 35.5815Z" fill="#202020"/>
<path fill-rule="evenodd" clip-rule="evenodd" d="M96 35.3766L95.9598 35.6976C95.8466 36.602 95.4771 37.4085 94.8511 38.1104C94.851 38.1105 94.8508 38.1106 94.8507 38.1108L94.5872 37.9335L94.8511 38.1104C94.8511 38.1104 94.8511 38.1104 94.8511 38.1104C94.2376 38.8009 93.4335 39.3349 92.4477 39.7142C91.4586 40.0948 90.3382 40.2815 89.093 40.2815C87.7038 40.2815 86.4697 40.0468 85.4002 39.5678C84.3341 39.0903 83.4971 38.4239 82.8976 37.5695L82.8968 37.5682C82.2956 36.7016 82 35.7028 82 34.5815C82 33.4606 82.2954 32.466 82.8972 31.6081C83.4963 30.7445 84.3334 30.073 85.4002 29.5952C86.4697 29.1163 87.7038 28.8815 89.093 28.8815C90.3382 28.8815 91.4586 29.0682 92.4477 29.4488C93.433 29.828 94.2369 30.3616 94.8502 31.0517C95.4776 31.7454 95.8468 32.5527 95.9598 33.4657L95.9995 33.7864H93.2197L93.1695 33.5489C93.0619 33.0392 92.8295 32.6099 92.476 32.2531L92.4745 32.2516L92.473 32.2501C92.1281 31.8924 91.674 31.6131 91.1003 31.4156L91.098 31.4148L91.0957 31.4139C90.5244 31.2087 89.8537 31.1022 89.077 31.1022C88.1795 31.1022 87.4167 31.2481 86.7783 31.5293C86.151 31.8104 85.6708 32.2072 85.33 32.7229C84.9901 33.2373 84.8137 33.8534 84.8137 34.5815C84.8137 35.3097 84.9901 35.9257 85.33 36.4401C85.6708 36.9558 86.151 37.3526 86.7782 37.6336C87.4166 37.9149 88.1794 38.0608 89.077 38.0608C89.8553 38.0608 90.5276 37.9585 91.1003 37.7614C91.674 37.5638 92.1281 37.2845 92.473 36.9268L92.4735 36.9263C92.829 36.5592 93.0618 36.1241 93.1695 35.6141L93.2197 35.3766H96ZM86.6263 37.8916C85.9429 37.5856 85.4144 37.1499 85.0406 36.5843C84.6669 36.0187 84.48 35.3511 84.48 34.5815C84.48 33.8119 84.6669 33.1443 85.0406 32.5787C85.4144 32.0131 85.9429 31.5774 86.6263 31.2714C87.3204 30.9654 88.1373 30.8124 89.077 30.8124C89.8885 30.8124 90.604 30.9237 91.2233 31.1462C91.8426 31.3595 92.3445 31.6654 92.7289 32.0641C93.124 32.4628 93.3803 32.9404 93.4977 33.4967H95.628C95.6159 33.3987 95.6007 33.3021 95.5823 33.2069C95.4393 32.4641 95.1075 31.805 94.5869 31.2297C94.0103 30.5806 93.2521 30.0753 92.3125 29.7137C91.3728 29.3521 90.2996 29.1713 89.093 29.1713C87.7475 29.1713 86.5676 29.3984 85.5532 29.8528C84.5387 30.3071 83.7486 30.9422 83.1826 31.7582C82.6167 32.5648 82.3337 33.5059 82.3337 34.5815C82.3337 35.6571 82.6167 36.6028 83.1826 37.4187C83.7486 38.2254 84.5387 38.8559 85.5532 39.3102C86.5676 39.7646 87.7475 39.9917 89.093 39.9917C90.2996 39.9917 91.3728 39.8109 92.3125 39.4493C93.2521 39.0877 94.0103 38.5824 94.5869 37.9333C95.1068 37.3506 95.4385 36.6915 95.5818 35.9561C95.6004 35.8608 95.6158 35.7642 95.628 35.6663H93.4977C93.3803 36.2227 93.124 36.7048 92.7289 37.1128C92.3445 37.5115 91.8426 37.8174 91.2233 38.0307C90.604 38.244 89.8885 38.3506 89.077 38.3506C88.1373 38.3506 87.3204 38.1976 86.6263 37.8916Z" fill="#202020"/>
<path d="M97.5005 39.8816L97.6005 29.1498H99.9005V38.9067L98.7566 38.0945H103.729C104.458 38.0945 105.033 37.9359 105.456 37.6185C105.878 37.2921 106.089 36.8615 106.089 36.3265C106.089 35.7826 105.823 35.4989 105.4 35.1816C104.978 34.8552 104.429 34.7816 103.7 34.7816H98.5507V33.0898H103.824C104.722 33.0898 105.498 33.2258 106.152 33.4978C106.807 33.7698 107.314 34.1506 107.673 34.6402C108.032 35.1207 108.3 35.6828 108.3 36.3265C108.3 36.9612 108.259 37.692 107.9 38.1816C107.541 38.6621 106.855 39.2096 106.2 39.4816C105.546 39.7536 104.598 39.8816 103.7 39.8816H97.5005ZM109.51 29.3498H111.8V39.8816H109.51V29.3498Z" fill="#202020"/>
<path fill-rule="evenodd" clip-rule="evenodd" d="M97.4001 40.0815V29.0815H100.139V32.9026H103.927C104.859 32.9026 105.683 33.0475 106.389 33.3483C107.091 33.6477 107.644 34.0715 108.037 34.6207C108.432 35.1639 108.625 35.7936 108.625 36.499C108.625 37.1965 108.432 37.8253 108.038 38.3761L108.036 38.3782C107.643 38.9183 107.09 39.3369 106.389 39.6357C105.683 39.9366 104.859 40.0815 103.927 40.0815H97.4001ZM107.76 34.776C107.402 34.2758 106.898 33.8868 106.246 33.6089C105.594 33.331 104.821 33.192 103.927 33.192H99.8106V29.371H97.7287V39.792H103.927C104.821 39.792 105.594 39.6531 106.246 39.3752C106.898 39.0973 107.402 38.7129 107.76 38.2219C108.117 37.7217 108.296 37.1474 108.296 36.499C108.296 35.8413 108.117 35.267 107.76 34.776ZM99.8106 38.3053H103.833C104.558 38.3053 105.131 38.1432 105.552 37.819C105.972 37.4855 106.183 37.0455 106.183 36.499C106.183 35.9432 105.972 35.5032 105.552 35.179C105.131 34.8455 104.558 34.6788 103.833 34.6788H99.8106V38.3053ZM100.139 34.9682V38.0158H103.833C104.502 38.0158 104.989 37.8673 105.334 37.6025C105.677 37.3297 105.854 36.9715 105.854 36.499C105.854 36.0147 105.675 35.6586 105.335 35.3968L105.334 35.3955L105.332 35.3941C104.987 35.1208 104.501 34.9682 103.833 34.9682H100.139ZM109.261 29.0815H112V40.0815H109.261V29.0815ZM109.59 29.371V39.792H111.671V29.371H109.59Z" fill="#202020"/>
<mask id="path-22-inside-1_1_296" fill="white">
<path d="M31.4248 41.9475C31.0184 42.0797 30.7951 42.5169 30.9392 42.9192C32.721 47.893 35.9617 52.2214 40.2461 55.3332C44.7395 58.5967 50.1503 60.3547 55.7038 60.3553C61.2573 60.356 66.6685 58.5992 71.1626 55.3367C75.4478 52.2259 78.6895 47.8982 80.4724 42.9249C80.6166 42.5226 80.3934 42.0854 79.987 41.953L79.6001 41.827C79.1937 41.6947 78.7582 41.9174 78.6131 42.3194C76.9586 46.9006 73.9657 50.8866 70.0144 53.7551C65.8542 56.7752 60.8449 58.4014 55.704 58.4009C50.5631 58.4003 45.5542 56.7729 41.3947 53.7518C37.4441 50.8825 34.4521 46.8957 32.7987 42.3142C32.6536 41.9122 32.2181 41.6894 31.8117 41.8216L31.4248 41.9475Z"/>
</mask>
<path d="M31.4248 41.9475C31.0184 42.0797 30.7951 42.5169 30.9392 42.9192C32.721 47.893 35.9617 52.2214 40.2461 55.3332C44.7395 58.5967 50.1503 60.3547 55.7038 60.3553C61.2573 60.356 66.6685 58.5992 71.1626 55.3367C75.4478 52.2259 78.6895 47.8982 80.4724 42.9249C80.6166 42.5226 80.3934 42.0854 79.987 41.953L79.6001 41.827C79.1937 41.6947 78.7582 41.9174 78.6131 42.3194C76.9586 46.9006 73.9657 50.8866 70.0144 53.7551C65.8542 56.7752 60.8449 58.4014 55.704 58.4009C50.5631 58.4003 45.5542 56.7729 41.3947 53.7518C37.4441 50.8825 34.4521 46.8957 32.7987 42.3142C32.6536 41.9122 32.2181 41.6894 31.8117 41.8216L31.4248 41.9475Z" fill="#F7612C" stroke="#F7612C" stroke-width="3.86896" mask="url(#path-22-inside-1_1_296)"/>
<mask id="path-23-inside-2_1_296" fill="white">
<path d="M35.6779 41.7305C35.5652 41.7672 35.5035 41.8884 35.5414 42.0007C36.9429 46.1612 39.5978 49.7883 43.144 52.3823C46.7481 55.0186 51.0901 56.4543 55.5553 56.4862C60.0205 56.518 64.3826 55.1444 68.0238 52.5599C71.6068 50.0167 74.3131 46.4279 75.7739 42.2879C75.8133 42.1761 75.7534 42.054 75.6412 42.0157C75.5291 41.9774 75.4072 42.0374 75.3677 42.1491C73.936 46.204 71.2849 49.7188 67.7754 52.2098C64.2076 54.7423 59.9335 56.0882 55.5583 56.0569C51.1832 56.0257 46.9288 54.619 43.3974 52.0358C39.9239 49.495 37.3232 45.9427 35.9495 41.8678C35.9117 41.7555 35.7906 41.6938 35.6779 41.7305Z"/>
</mask>
<path d="M35.6779 41.7305C35.5652 41.7672 35.5035 41.8884 35.5414 42.0007C36.9429 46.1612 39.5978 49.7883 43.144 52.3823C46.7481 55.0186 51.0901 56.4543 55.5553 56.4862C60.0205 56.518 64.3826 55.1444 68.0238 52.5599C71.6068 50.0167 74.3131 46.4279 75.7739 42.2879C75.8133 42.1761 75.7534 42.054 75.6412 42.0157C75.5291 41.9774 75.4072 42.0374 75.3677 42.1491C73.936 46.204 71.2849 49.7188 67.7754 52.2098C64.2076 54.7423 59.9335 56.0882 55.5583 56.0569C51.1832 56.0257 46.9288 54.619 43.3974 52.0358C39.9239 49.495 37.3232 45.9427 35.9495 41.8678C35.9117 41.7555 35.7906 41.6938 35.6779 41.7305Z" fill="#F7612C" stroke="#F7612C" stroke-width="3.86896" mask="url(#path-23-inside-2_1_296)"/>
<path d="M79.4945 43.702L92.1866 41.9438L79.4258 41.9742C79.4227 41.9742 79.4202 41.9768 79.4203 41.9799L79.4882 43.6967C79.4883 43.7 79.4912 43.7024 79.4945 43.702Z" fill="#F7612C" stroke="#F7612C" stroke-width="0.379145"/>
<path d="M32.0935 43.7019L19.1374 41.9747L32.0942 41.9747C32.0973 41.9747 32.0998 41.9772 32.0998 41.9802L32.0998 43.6965C32.0998 43.6998 32.0968 43.7024 32.0935 43.7019Z" fill="#F7612C" stroke="#F7612C" stroke-width="0.379145"/>
<mask id="path-26-inside-3_1_296" fill="white">
<path d="M31.5387 26.8443C31.0238 26.6826 30.7357 26.1334 30.9164 25.6248C32.6783 20.6661 35.8901 16.3419 40.1453 13.2204C44.6635 9.90592 50.1219 8.12063 55.7255 8.1246C61.3291 8.12857 66.785 9.92158 71.2985 13.2425C75.5492 16.37 78.7549 20.6988 80.5098 25.6599C80.6897 26.1687 80.4009 26.7176 79.8857 26.8786C79.3706 27.0395 78.8243 26.7516 78.6428 26.2433C77.0132 21.6793 74.0556 17.6975 70.1402 14.8167C65.962 11.7426 60.9114 10.0828 55.7241 10.0791C50.5368 10.0754 45.4839 11.7281 41.3013 14.7963C37.3819 17.6716 34.4186 21.6492 32.7825 26.2109C32.6003 26.7189 32.0537 27.006 31.5387 26.8443Z"/>
</mask>
<path d="M31.5387 26.8443C31.0238 26.6826 30.7357 26.1334 30.9164 25.6248C32.6783 20.6661 35.8901 16.3419 40.1453 13.2204C44.6635 9.90592 50.1219 8.12063 55.7255 8.1246C61.3291 8.12857 66.785 9.92158 71.2985 13.2425C75.5492 16.37 78.7549 20.6988 80.5098 25.6599C80.6897 26.1687 80.4009 26.7176 79.8857 26.8786C79.3706 27.0395 78.8243 26.7516 78.6428 26.2433C77.0132 21.6793 74.0556 17.6975 70.1402 14.8167C65.962 11.7426 60.9114 10.0828 55.7241 10.0791C50.5368 10.0754 45.4839 11.7281 41.3013 14.7963C37.3819 17.6716 34.4186 21.6492 32.7825 26.2109C32.6003 26.7189 32.0537 27.006 31.5387 26.8443Z" fill="#F7612C" stroke="#F7612C" stroke-width="3.86896" mask="url(#path-26-inside-3_1_296)"/>
<mask id="path-27-inside-4_1_296" fill="white">
<path d="M35.6364 26.8788C35.5235 26.8428 35.461 26.722 35.4981 26.6094C36.8886 22.3922 39.5644 18.7137 43.1527 16.0917C46.7988 13.4274 51.1979 11.9922 55.7136 11.9936C60.2293 11.9949 64.6276 13.4328 68.272 16.0992C71.8587 18.7234 74.5323 22.4035 75.9202 26.6216C75.9573 26.7342 75.8948 26.855 75.7818 26.8909C75.6688 26.9268 75.5482 26.8642 75.5112 26.7516C74.1508 22.6204 71.5317 19.016 68.0186 16.4457C64.4476 13.833 60.1381 12.4241 55.7135 12.4228C51.2888 12.4215 46.9785 13.8278 43.4059 16.4382C39.8912 19.0065 37.27 22.6092 35.9071 26.7397C35.87 26.8522 35.7494 26.9147 35.6364 26.8788Z"/>
</mask>
<path d="M35.6364 26.8788C35.5235 26.8428 35.461 26.722 35.4981 26.6094C36.8886 22.3922 39.5644 18.7137 43.1527 16.0917C46.7988 13.4274 51.1979 11.9922 55.7136 11.9936C60.2293 11.9949 64.6276 13.4328 68.272 16.0992C71.8587 18.7234 74.5323 22.4035 75.9202 26.6216C75.9573 26.7342 75.8948 26.855 75.7818 26.8909C75.6688 26.9268 75.5482 26.8642 75.5112 26.7516C74.1508 22.6204 71.5317 19.016 68.0186 16.4457C64.4476 13.833 60.1381 12.4241 55.7135 12.4228C51.2888 12.4215 46.9785 13.8278 43.4059 16.4382C39.8912 19.0065 37.27 22.6092 35.9071 26.7397C35.87 26.8522 35.7494 26.9147 35.6364 26.8788Z" fill="#F7612C" stroke="#F7612C" stroke-width="3.86896" mask="url(#path-27-inside-4_1_296)"/>
<line x1="42.9146" y1="0.741428" x2="67.9382" y2="0.741428" stroke="#F7612C" stroke-width="1.48272"/>
<path d="M41.796 8.16065C41.7954 8.16245 41.7948 8.16383 41.7944 8.16487C41.7932 8.1649 41.7916 8.1648 41.7895 8.16437C41.7875 8.16394 41.786 8.16337 41.7849 8.16287C41.7849 8.16173 41.785 8.16025 41.7852 8.15837L42.648 0.194527C42.6483 0.191725 42.6507 0.189601 42.6535 0.189601L44.3451 0.1896C44.3469 0.1896 44.3474 0.18993 44.3476 0.190001C44.348 0.190227 44.3488 0.190796 44.3496 0.191868C44.3504 0.19294 44.3507 0.193875 44.3508 0.194359C44.3508 0.194509 44.3509 0.195098 44.3504 0.196809L41.796 8.16065Z" fill="#F7612C" stroke="#F7612C" stroke-width="0.379145"/>
<path d="M69.231 8.16065C69.2316 8.16245 69.2321 8.16383 69.2326 8.16487C69.2338 8.1649 69.2354 8.1648 69.2374 8.16437C69.2395 8.16394 69.241 8.16337 69.242 8.16287C69.242 8.16173 69.242 8.16025 69.2418 8.15837L68.3789 0.194527C68.3786 0.191725 68.3763 0.189601 68.3734 0.189601L66.6818 0.1896C66.68 0.1896 66.6795 0.18993 66.6794 0.190001C66.679 0.190227 66.6781 0.190796 66.6774 0.191868C66.6766 0.19294 66.6763 0.193875 66.6762 0.194359C66.6762 0.194509 66.676 0.195098 66.6766 0.196809L69.231 8.16065Z" fill="#F7612C" stroke="#F7612C" stroke-width="0.379145"/>
<path d="M31.7112 24.9717L19.0377 26.6991L31.7606 26.6991C31.7637 26.6991 31.7662 26.6966 31.7661 26.6935L31.7175 24.977C31.7174 24.9737 31.7145 24.9713 31.7112 24.9717Z" fill="#F7612C" stroke="#F7612C" stroke-width="0.379145"/>
<path d="M79.5136 24.9808L92.2234 26.734L79.5918 26.734C79.5888 26.734 79.5864 26.7317 79.5862 26.7287L79.5073 24.9865C79.5072 24.983 79.5102 24.9803 79.5136 24.9808Z" fill="#F7612C" stroke="#F7612C" stroke-width="0.379145"/>
<line x1="68.1851" y1="67.3401" x2="43.1615" y2="67.3401" stroke="#F7612C" stroke-width="1.48272"/>
<path d="M69.2318 59.9209C69.2324 59.9191 69.2329 59.9177 69.2334 59.9167C69.2346 59.9167 69.2362 59.9168 69.2382 59.9172C69.2402 59.9176 69.2418 59.9182 69.2428 59.9187C69.2428 59.9198 69.2428 59.9213 69.2426 59.9232L68.3797 67.887C68.3794 67.8898 68.3771 67.892 68.3742 67.892L66.6826 67.892C66.6808 67.892 66.6803 67.8916 66.6802 67.8916C66.6797 67.8913 66.6789 67.8908 66.6782 67.8897C66.6774 67.8886 66.6771 67.8877 66.677 67.8872C66.677 67.887 66.6768 67.8865 66.6774 67.8847L69.2318 59.9209Z" fill="#F7612C" stroke="#F7612C" stroke-width="0.379145"/>
<path d="M41.799 59.9209C41.7984 59.9191 41.7979 59.9177 41.7974 59.9167C41.7962 59.9167 41.7946 59.9168 41.7926 59.9172C41.7906 59.9176 41.7891 59.9182 41.788 59.9187C41.788 59.9198 41.7881 59.9213 41.7883 59.9232L42.6511 67.887C42.6514 67.8898 42.6538 67.892 42.6566 67.892L44.3482 67.892C44.35 67.892 44.3505 67.8916 44.3506 67.8916C44.3511 67.8913 44.3519 67.8908 44.3526 67.8897C44.3534 67.8886 44.3537 67.8877 44.3538 67.8872C44.3538 67.887 44.354 67.8865 44.3534 67.8847L41.799 59.9209Z" fill="#F7612C" stroke="#F7612C" stroke-width="0.379145"/>
</svg>
